<svg width="38" height="23" viewBox="0 0 38 23" fill="none" xmlns="http://www.w3.org/2000/svg">
<path d="M37.2001 4.74987L20.4 21.5999C20.2 21.7999 19.9834 21.9419 19.75 22.0259C19.5167 22.1099 19.2667 22.1512 19 22.1499C18.7334 22.1499 18.4834 22.1079 18.25 22.0239C18.0167 21.9399 17.8 21.7985 17.6 21.5999L0.750049 4.74987C0.283382 4.2832 0.050049 3.69987 0.0500491 2.99987C0.0500491 2.29987 0.300049 1.69987 0.800049 1.19987C1.30005 0.699871 1.88338 0.449871 2.55005 0.449871C3.21672 0.449871 3.80005 0.699871 4.30005 1.19987L19 15.8999L33.7001 1.19987C34.1667 0.733204 34.7421 0.499871 35.426 0.499871C36.11 0.499871 36.7014 0.749871 37.2001 1.24987C37.7001 1.74987 37.9501 2.3332 37.9501 2.99987C37.9501 3.66654 37.7001 4.24987 37.2001 4.74987Z" fill="#808997"/>
</svg>
