<svg width="24" height="23" viewBox="0 0 24 23" fill="none" xmlns="http://www.w3.org/2000/svg">
<path d="M19.7004 7.3001C20.5888 7.29994 21.444 7.63761 22.0926 8.24465C22.7413 8.85168 23.1348 9.68266 23.1934 10.5691L23.2018 10.7987V19.1987C23.202 20.0873 22.8641 20.9427 22.2568 21.5914C21.6494 22.24 20.8181 22.6334 19.9314 22.6917L19.7018 22.6987H11.3018C10.4132 22.6988 9.55783 22.361 8.90917 21.7536C8.2605 21.1463 7.86712 20.315 7.80883 19.4283L7.80183 19.1987V10.7987C7.80169 9.9101 8.13955 9.05471 8.74688 8.40604C9.35421 7.75737 10.1855 7.364 11.0722 7.3057L11.3004 7.3001H19.7004ZM19.7004 8.7001H11.3032C10.7814 8.7001 10.2783 8.89436 9.89188 9.24505C9.50547 9.59574 9.26347 10.0777 9.21303 10.5971L9.20323 10.7987V19.1987C9.20325 19.7207 9.39772 20.2241 9.74869 20.6105C10.0997 20.9969 10.582 21.2388 11.1016 21.2889L11.3032 21.2987H19.7032C20.2253 21.2987 20.7286 21.1042 21.115 20.7532C21.5015 20.4023 21.7433 19.9199 21.7934 19.4003L21.8004 19.2001V10.8001C21.8004 10.2781 21.6059 9.77476 21.255 9.38832C20.904 9.00188 20.4217 8.76002 19.902 8.7099L19.7004 8.7001ZM15.5018 10.1001C15.6657 10.1 15.8243 10.1575 15.9502 10.2623C16.0761 10.3672 16.1611 10.5129 16.1906 10.6741L16.2004 10.8001V14.2973H19.7018C19.8768 14.297 20.0455 14.3622 20.1747 14.48C20.304 14.5979 20.3844 14.7598 20.4003 14.9341C20.4161 15.1083 20.3661 15.2821 20.2601 15.4213C20.1542 15.5605 20 15.6549 19.8278 15.6861L19.7018 15.6973H16.2004L16.2018 19.1973C16.2022 19.3722 16.137 19.5409 16.0191 19.6702C15.9013 19.7995 15.7393 19.8799 15.5651 19.8957C15.3909 19.9115 15.2171 19.8615 15.0779 19.7556C14.9387 19.6496 14.8442 19.4954 14.813 19.3233L14.8018 19.1973L14.8004 15.7001H11.3018C11.1269 15.7004 10.9582 15.6352 10.8289 15.5174C10.6997 15.3995 10.6192 15.2376 10.6034 15.0634C10.5876 14.8891 10.6376 14.7153 10.7435 14.5761C10.8495 14.4369 11.0037 14.3425 11.1758 14.3113L11.3018 14.3001H14.8004L14.8018 10.8001C14.8018 10.6145 14.8756 10.4364 15.0069 10.3051C15.1381 10.1739 15.3162 10.1001 15.5018 10.1001ZM15.7286 2.6717L15.7958 2.8929L16.6008 5.8987H15.1504L14.4434 3.2541C14.3082 2.74997 13.9902 2.31424 13.5512 2.03186C13.1122 1.74948 12.5838 1.64069 12.069 1.7267L11.8716 1.7687L3.75723 3.9443C3.25337 4.07947 2.81786 4.39734 2.53551 4.836C2.25316 5.27466 2.1442 5.80271 2.22983 6.3173L2.27183 6.5161L4.44743 14.6291C4.56368 15.0632 4.81614 15.4486 5.16768 15.7286C5.51922 16.0085 5.95131 16.1683 6.40043 16.1845V17.5845C5.68545 17.5691 4.99232 17.3351 4.4142 16.9142C3.83607 16.4932 3.40064 15.9054 3.16643 15.2297L3.09363 14.9917L0.919428 6.8787C0.689096 6.02045 0.793845 5.10671 1.21243 4.32285C1.63101 3.53898 2.33208 2.94368 3.17343 2.6577L3.39463 2.5919L11.5076 0.417704C12.3279 0.197827 13.2 0.283654 13.9617 0.659192C14.7233 1.03473 15.3224 1.67436 15.6474 2.4589L15.7272 2.6717H15.7286Z" fill="black"/>
</svg>
