<svg width="26" height="21" viewBox="0 0 26 21" fill="none" xmlns="http://www.w3.org/2000/svg">
<path d="M11.7462 12.8917L18.367 6.3L16.7045 4.6375L11.7462 9.59584L9.26699 7.11667L7.63366 8.75L11.7462 12.8917ZM0.166992 21V18.6667H25.8337V21H0.166992ZM3.66699 17.5C3.02533 17.5 2.47583 17.2713 2.01849 16.814C1.56116 16.3567 1.33288 15.8076 1.33366 15.1667V2.33334C1.33366 1.69167 1.56233 1.14217 2.01966 0.684835C2.47699 0.227502 3.0261 -0.000775797 3.66699 1.98076e-06H22.3337C22.9753 1.98076e-06 23.5248 0.228669 23.9822 0.686002C24.4395 1.14334 24.6678 1.69245 24.667 2.33334V15.1667C24.667 15.8083 24.4383 16.3578 23.981 16.8152C23.5237 17.2725 22.9745 17.5008 22.3337 17.5H3.66699Z" fill="black"/>
</svg>
