<svg width="31" height="34" viewBox="0 0 31 34" fill="none" xmlns="http://www.w3.org/2000/svg">
<path d="M4.25 30.1438H9.875V18.6639H21.125V30.1438H26.75V12.9239L15.5 4.31395L4.25 12.9239V30.1438ZM4.25 33.9704C3.21875 33.9704 2.33563 33.5954 1.60063 32.8454C0.865628 32.0954 0.498753 31.1949 0.500003 30.1438V12.9239C0.500003 12.318 0.633128 11.744 0.899378 11.2019C1.16563 10.6598 1.5325 10.2134 2 9.86258L13.25 1.25263C13.5938 0.997524 13.9531 0.806192 14.3281 0.678637C14.7031 0.551082 15.0938 0.487305 15.5 0.487305C15.9063 0.487305 16.2969 0.551082 16.6719 0.678637C17.0469 0.806192 17.4063 0.997524 17.75 1.25263L29 9.86258C29.4688 10.2134 29.8363 10.6598 30.1025 11.2019C30.3688 11.744 30.5013 12.318 30.5 12.9239V30.1438C30.5 31.1961 30.1325 32.0973 29.3975 32.8473C28.6625 33.5974 27.78 33.9717 26.75 33.9704H17.375V22.4905H13.625V33.9704H4.25Z" fill="#808997"/>
</svg>
