<svg width="163" height="166" viewBox="0 0 163 166" fill="none" xmlns="http://www.w3.org/2000/svg">
<rect width="163" height="166" rx="25" fill="#0554F2"/>
<path d="M99.751 68.1289C99.3174 68.1289 98.6309 68.0928 97.6914 68.0205C96.752 67.9242 95.9932 67.876 95.415 67.876H92.5967C92.5726 67.4665 92.5605 68.3216 92.5605 70.4414C92.5605 87.6888 91.3441 100.251 88.9111 108.128C87.1286 113.933 83.8887 116.836 79.1914 116.836C74.7109 116.836 70.2786 115.294 65.8945 112.211C60.9323 108.766 58.4512 104.719 58.4512 100.07C58.4512 96.3125 60.1494 94.4336 63.5459 94.4336C66.9424 94.4336 68.6406 96.2884 68.6406 99.998C68.6406 101.419 69.8571 102.949 72.29 104.587C74.7471 106.201 77.0475 107.008 79.1914 107.008C80.0586 107.008 80.6849 105.406 81.0703 102.202C81.1667 101.431 81.4316 97.6855 81.8652 90.9648C82.2266 85.4727 82.4072 78.6315 82.4072 70.4414C82.4072 70.1042 82.3711 69.3213 82.2988 68.0928L81.4678 68.1289C80.4079 68.1771 78.9867 68.165 77.2041 68.0928C75.0602 67.9964 73.639 67.9482 72.9404 67.9482C71.5192 67.9482 70.3148 67.5146 69.3271 66.6475C68.2673 65.708 67.7373 64.4915 67.7373 62.998C67.7373 59.722 69.8932 58.084 74.2051 58.084C75.0241 58.084 76.2406 58.1201 77.8545 58.1924C79.4684 58.2406 80.6729 58.2646 81.4678 58.2646C82.9854 58.2646 85.2497 58.1803 88.2607 58.0117C91.2959 57.8431 93.5723 57.7588 95.0898 57.7588C101.546 57.7588 104.773 59.5534 104.773 63.1426C104.773 64.3952 104.34 65.5153 103.473 66.5029C102.485 67.5869 101.244 68.1289 99.751 68.1289Z" fill="#FAF8F8"/>
</svg>
