<svg width="25" height="21" viewBox="0 0 25 21" fill="none" xmlns="http://www.w3.org/2000/svg">
<path d="M14.167 0C11.3822 0 8.7115 1.10625 6.74237 3.07538C4.77324 5.04451 3.66699 7.71523 3.66699 10.5H0.166992L4.70533 15.0383L4.78699 15.2017L9.50033 10.5H6.00033C6.00033 5.985 9.65199 2.33333 14.167 2.33333C18.682 2.33333 22.3337 5.985 22.3337 10.5C22.3337 15.015 18.682 18.6667 14.167 18.6667C11.9153 18.6667 9.87366 17.745 8.40366 16.2633L6.74699 17.92C7.71931 18.8977 8.87556 19.6732 10.1491 20.2018C11.4226 20.7304 12.7881 21.0017 14.167 21C16.9518 21 19.6225 19.8938 21.5916 17.9246C23.5607 15.9555 24.667 13.2848 24.667 10.5C24.667 7.71523 23.5607 5.04451 21.5916 3.07538C19.6225 1.10625 16.9518 4.14964e-08 14.167 0ZM13.0003 5.83333V11.6667L17.9937 14.63L18.8337 13.2183L14.7503 10.7917V5.83333H13.0003Z" fill="black"/>
</svg>
